<?xml version="1.0" standalone="no"?>
<!DOCTYPE svg PUBLIC "-//W3C//DTD SVG 20010904//EN"
 "http://www.w3.org/TR/2001/REC-SVG-20010904/DTD/svg10.dtd">
<svg version="1.0" xmlns="http://www.w3.org/2000/svg"
 width="1334.000000pt" height="1000.000000pt" viewBox="0 0 1334.000000 1000.000000"
 preserveAspectRatio="xMidYMid meet">

<g transform="translate(0.000000,1000.000000) scale(0.100000,-0.100000)"
fill="#000000" stroke="none">
<path d="M3807 7932 c-20 -22 -22 -63 -5 -80 19 -19 55 -14 72 10 21 30 20 44
-4 68 -25 25 -42 25 -63 2z"/>
<path d="M2515 7879 c-494 -66 -953 -297 -1228 -616 -154 -180 -237 -336 -294
-552 -23 -84 -26 -117 -26 -266 -1 -165 10 -254 42 -338 14 -37 53 -37 70 1
83 183 299 451 498 614 242 198 583 365 893 437 302 70 619 68 839 -5 424
-140 595 -444 428 -758 -70 -132 -276 -302 -492 -407 -118 -56 -317 -125 -392
-135 l-51 -6 -7 58 c-19 163 -64 318 -122 424 -50 90 -170 208 -253 248 -90
44 -175 58 -259 43 -255 -47 -410 -287 -346 -534 37 -141 144 -277 275 -349
106 -59 257 -99 419 -110 l34 -3 -2 -85 c-3 -104 -34 -358 -62 -494 -84 -419
-235 -823 -389 -1038 -75 -105 -204 -232 -281 -276 -141 -81 -286 -77 -377 11
-48 46 -65 84 -65 147 0 134 109 246 275 281 26 6 48 14 48 18 0 4 -21 17 -47
30 -146 71 -311 34 -444 -98 -109 -109 -156 -230 -146 -376 15 -228 167 -413
383 -469 87 -23 239 -21 342 4 276 66 481 249 632 565 213 447 358 1063 388
1655 l7 134 100 13 c150 18 284 49 445 103 543 179 867 479 930 860 42 254
-66 565 -273 786 -214 230 -556 402 -932 470 -106 19 -454 27 -560 13z m534
-160 c211 -35 389 -97 611 -214 114 -60 190 -130 190 -173 0 -71 -63 -67 -188
11 -597 374 -1307 363 -1895 -30 -62 -41 -142 -99 -179 -129 -81 -65 -114 -82
-130 -66 -32 32 70 152 232 273 391 292 869 408 1359 328z m947 -510 c89 -54
101 -157 18 -147 -57 6 -117 121 -82 156 16 16 25 15 64 -9z m-1631 -665 c75
-39 96 -120 39 -146 -22 -10 -34 -7 -90 20 -116 58 -192 42 -294 -62 -30 -31
-58 -56 -61 -56 -16 0 -39 33 -39 56 0 64 91 168 173 198 64 23 220 17 272
-10z m-28 -282 c35 -19 101 -101 128 -159 29 -60 65 -191 65 -235 0 -24 -4
-28 -28 -28 -16 0 -64 9 -106 20 -194 49 -310 165 -293 293 15 108 132 163
234 109z m-239 -2484 c20 -20 14 -65 -10 -82 -32 -23 -55 -20 -73 8 -25 37 4
85 51 86 11 0 25 -5 32 -12z m-137 -108 c25 -14 25 -60 -1 -93 -27 -34 -126
-83 -197 -98 -76 -15 -198 -7 -247 16 -21 10 -47 32 -57 49 -16 27 -17 33 -4
45 12 13 28 13 107 2 132 -18 195 -5 317 64 50 28 55 29 82 15z"/>
<path d="M4044 7830 c-28 -11 -64 -58 -64 -82 0 -49 50 -98 99 -98 29 0 68 37
75 70 8 43 -16 98 -49 110 -30 12 -33 12 -61 0z"/>
<path d="M7815 7774 c-404 -71 -777 -374 -970 -788 -91 -194 -170 -462 -222
-752 -24 -136 -30 -157 -49 -164 -37 -15 -286 -50 -402 -58 l-113 -8 6 26 c17
69 232 478 320 610 52 79 95 149 95 156 0 19 -93 18 -226 -1 -257 -38 -352
-109 -469 -350 -35 -71 -85 -191 -110 -265 -25 -74 -49 -138 -53 -142 -21 -19
-479 99 -669 173 -57 23 -106 39 -109 37 -2 -3 34 -42 81 -87 141 -135 327
-243 538 -312 62 -21 97 -37 97 -47 0 -7 -13 -71 -29 -140 -65 -282 -90 -463
-98 -710 l-6 -184 -50 -49 c-88 -87 -235 -159 -322 -159 -121 0 -164 93 -105
228 11 24 74 136 142 250 211 359 270 491 254 576 -9 46 -48 92 -91 106 -56
18 -103 -3 -202 -91 -48 -44 -118 -95 -155 -114 -61 -33 -172 -64 -183 -53 -3
3 12 43 34 89 58 123 75 197 75 314 -1 124 -26 197 -89 260 -52 53 -98 68
-183 63 -82 -5 -133 -28 -189 -86 -169 -173 -164 -542 8 -714 l48 -48 -63 -57
c-35 -32 -82 -68 -105 -81 l-41 -23 0 88 c-1 210 -81 362 -228 431 -48 23 -71
27 -142 27 -76 0 -93 -3 -152 -33 -41 -20 -82 -50 -105 -76 -35 -40 -38 -42
-63 -29 -203 101 -502 -162 -596 -522 -33 -126 -37 -312 -10 -414 44 -162 142
-282 268 -327 317 -112 729 123 928 529 28 56 50 107 50 113 0 6 19 19 43 28
73 28 194 112 284 199 l88 84 90 6 c50 3 121 15 158 27 38 12 71 19 74 17 2
-3 -51 -94 -118 -204 -196 -318 -242 -425 -243 -558 -1 -176 121 -275 323
-262 181 12 349 83 523 223 66 54 80 61 84 47 21 -61 70 -153 97 -181 157
-164 497 -96 754 151 35 33 63 54 63 47 0 -8 -16 -84 -36 -169 -52 -223 -149
-511 -172 -511 -5 0 -137 31 -293 69 -483 118 -705 161 -1009 197 -201 24
-564 24 -720 1 -446 -68 -761 -250 -914 -528 -78 -142 -112 -296 -103 -462 7
-126 25 -198 77 -304 133 -271 417 -459 790 -524 605 -105 1272 92 1775 523
226 194 394 403 568 710 l27 47 53 -15 c81 -24 696 -229 1072 -359 949 -326
1414 -428 1945 -428 418 0 746 72 1085 238 485 238 825 584 927 942 29 103 32
294 5 398 -20 77 -66 177 -83 182 -6 2 -36 -47 -67 -109 -195 -388 -608 -701
-1187 -899 -400 -137 -746 -192 -1215 -192 -499 -1 -934 59 -1615 224 -215 52
-823 209 -828 213 -1 2 11 41 28 87 109 294 176 607 265 1239 41 288 93 603
105 635 6 16 20 24 51 29 23 4 155 33 293 66 317 75 463 100 585 100 213 0
372 -76 456 -219 17 -28 33 -51 37 -51 14 0 50 129 55 200 10 141 -33 256
-129 345 -94 88 -211 121 -393 112 -177 -8 -315 -41 -732 -172 -68 -21 -125
-36 -128 -33 -7 6 63 209 110 318 170 398 448 678 740 746 106 24 253 16 326
-18 78 -36 133 -89 171 -165 26 -54 31 -75 31 -136 0 -118 -60 -220 -154 -262
-21 -10 -39 -21 -39 -26 0 -16 71 -32 171 -36 168 -8 274 32 377 142 156 167
184 400 73 612 -90 172 -257 317 -444 388 -141 53 -337 68 -502 39z m353 -100
c44 -9 118 -35 172 -61 171 -82 299 -237 345 -418 22 -87 20 -166 -6 -199 -23
-29 -60 -34 -83 -10 -19 18 -22 32 -36 139 -27 209 -181 366 -421 427 -71 17
-103 20 -214 15 -180 -7 -322 -49 -496 -149 -122 -70 -162 -38 -64 50 95 84
282 171 446 207 88 19 263 18 357 -1z m-1953 -978 c25 -38 4 -68 -79 -110 -40
-19 -101 -60 -136 -91 -66 -57 -93 -67 -108 -38 -22 38 38 137 123 203 62 48
88 59 142 59 34 1 46 -4 58 -23z m1770 -431 c99 -26 130 -45 133 -82 3 -27 -1
-35 -21 -44 -20 -9 -36 -7 -81 10 -182 68 -311 51 -888 -118 -475 -140 -711
-182 -1003 -181 -137 0 -267 18 -289 40 -25 25 19 31 275 34 217 2 285 6 381
24 178 33 369 83 706 187 270 83 418 124 502 138 64 11 230 6 285 -8z m-3363
-136 c27 -7 40 -17 44 -34 6 -26 -10 -65 -29 -66 -7 0 -37 -2 -68 -3 -63 -3
-126 -34 -171 -85 -53 -59 -79 -4 -35 73 30 53 86 96 144 112 60 16 69 16 115
3z m1142 -185 c19 -19 20 -26 4 -42 -29 -29 -109 6 -95 41 8 22 70 23 91 1z
m-1193 -94 c29 -16 49 -64 49 -120 0 -52 -30 -157 -57 -199 l-15 -23 -30 28
c-39 38 -57 73 -69 138 -23 124 43 218 122 176z m1969 -114 c0 -33 -99 -791
-109 -837 -17 -74 -167 -221 -286 -280 -72 -35 -160 -54 -210 -45 -48 9 -98
55 -126 118 -22 50 -24 65 -24 233 1 246 39 463 128 725 l32 95 185 -2 c102
-2 226 1 275 6 143 13 135 14 135 -13z m-2646 -66 c34 -12 54 -54 37 -74 -7
-8 -40 -17 -74 -21 -82 -10 -98 -17 -163 -70 -61 -49 -84 -50 -84 -1 0 105
175 208 284 166z m1360 -29 c27 -29 17 -50 -49 -102 -67 -53 -101 -61 -114
-27 -12 34 5 79 44 116 41 38 92 43 119 13z m-1880 -157 c9 -8 16 -18 16 -20
0 -18 -34 -59 -105 -129 -45 -44 -96 -105 -113 -136 -56 -99 -102 -118 -102
-40 0 100 126 284 224 327 41 18 61 17 80 -2z m586 -11 c61 -35 91 -111 92
-229 0 -112 -5 -124 -51 -124 -95 0 -205 59 -241 129 -75 148 64 303 200 224z
m-392 -353 c67 -103 214 -180 343 -180 32 0 59 -4 59 -9 0 -21 -85 -134 -137
-181 -74 -68 -142 -101 -219 -108 -88 -7 -129 4 -174 44 -74 67 -89 170 -41
281 22 48 121 203 131 203 3 0 20 -23 38 -50z m7669 -966 c10 -26 -18 -64
-137 -188 -213 -220 -397 -355 -667 -490 -283 -141 -579 -226 -911 -261 -217
-23 -334 -17 -370 18 -21 22 -8 62 25 75 16 6 118 13 228 16 277 6 489 46 737
137 358 132 653 319 940 596 114 111 143 129 155 97z m-6712 -40 c23 -9 27
-37 8 -56 -14 -13 -51 -21 -159 -32 -400 -42 -640 -139 -825 -333 -79 -84
-135 -177 -165 -278 -25 -83 -24 -236 0 -337 22 -87 15 -108 -35 -108 -23 0
-32 7 -49 40 -59 115 -65 306 -14 458 118 359 495 604 998 652 86 8 212 5 241
-6z m199 -10 c9 -8 16 -19 16 -24 0 -19 -33 -40 -64 -40 -36 0 -56 15 -56 42
0 36 75 52 104 22z m571 -214 c217 -33 762 -154 781 -173 12 -12 -104 -165
-199 -264 -171 -178 -335 -296 -572 -413 -401 -198 -784 -250 -1100 -149 -169
54 -289 147 -350 273 -67 136 -54 267 40 394 111 152 356 280 632 331 156 29
157 29 403 26 166 -3 262 -9 365 -25z m3730 -572 c37 -17 44 -56 14 -81 -20
-16 -33 -18 -76 -13 -67 8 -81 14 -88 37 -8 25 1 38 39 55 39 17 77 18 111 2z
m-3311 -164 c9 -8 16 -22 16 -29 0 -41 -121 -130 -290 -215 -160 -80 -340
-118 -340 -71 0 15 22 28 195 114 94 46 215 114 270 151 104 69 124 76 149 50z"/>
<path d="M4707 3789 c-184 -16 -373 -68 -507 -140 -80 -44 -169 -111 -153
-116 5 -2 43 12 84 31 187 86 373 125 624 133 259 8 524 -25 900 -112 l150
-35 32 37 c18 21 32 43 33 49 0 10 -130 43 -355 88 -316 64 -580 86 -808 65z"/>
<path d="M7815 7111 c-33 -10 -85 -30 -115 -45 -67 -35 -180 -114 -180 -127 0
-13 -2 -13 83 26 111 51 193 68 309 63 112 -6 179 -32 247 -98 23 -22 44 -40
47 -40 4 0 4 22 2 50 -8 83 -72 154 -164 179 -57 16 -160 12 -229 -8z"/>
<path d="M2725 7079 c-353 -45 -689 -176 -983 -386 -75 -53 -74 -77 2 -28 70
45 253 136 347 173 233 93 456 141 694 148 256 9 427 -26 620 -124 71 -37 108
-64 179 -134 49 -49 90 -87 93 -85 6 7 -16 96 -31 126 -79 152 -301 272 -571
311 -83 11 -252 11 -350 -1z"/>
<path d="M11112 6815 c-234 -42 -434 -146 -584 -303 -125 -131 -203 -289 -228
-460 -25 -166 0 -174 128 -44 108 109 170 153 305 218 518 245 1126 61 1242
-376 22 -81 19 -214 -5 -293 -52 -168 -228 -334 -442 -417 -69 -27 -226 -65
-234 -57 -2 2 0 28 6 57 34 179 -12 374 -113 478 -73 76 -197 121 -296 107
-69 -9 -164 -59 -208 -109 -39 -44 -39 -44 -68 -28 -43 23 -137 20 -207 -7
-124 -48 -231 -155 -313 -312 -70 -135 -96 -239 -102 -401 l-6 -138 -44 -41
c-90 -83 -221 -117 -282 -72 -48 37 -66 80 -66 163 0 90 15 139 135 461 104
276 108 294 85 343 -21 43 -114 113 -200 151 -111 49 -285 91 -285 68 0 -3 11
-29 25 -58 13 -29 29 -82 35 -118 19 -118 -2 -205 -130 -542 -51 -133 -77
-236 -86 -334 l-7 -73 -46 -29 c-58 -37 -136 -66 -199 -75 -60 -8 -128 19
-159 62 -45 63 -56 120 -56 284 1 243 41 465 135 740 129 379 369 861 547
1098 44 58 16 64 -189 41 -255 -29 -378 -115 -489 -344 -115 -235 -243 -670
-307 -1043 -17 -100 -19 -105 -58 -138 -23 -20 -62 -48 -87 -64 l-46 -28 -6
106 c-6 131 -32 218 -87 294 -127 178 -380 198 -534 41 -45 -45 -46 -46 -78
-32 -83 35 -213 2 -313 -79 -244 -196 -364 -599 -269 -902 114 -365 521 -421
892 -124 132 105 237 246 311 415 29 65 38 77 68 88 19 7 63 32 98 56 l63 44
0 -187 c0 -215 13 -296 66 -408 77 -162 210 -221 405 -180 88 19 232 86 319
150 l62 46 24 -38 c33 -53 110 -120 164 -145 64 -28 179 -34 262 -13 91 23
237 97 317 161 37 30 70 55 73 55 3 0 20 -23 39 -51 128 -188 379 -233 637
-114 195 89 370 263 469 464 l39 78 100 11 c257 28 526 137 721 292 224 179
339 419 322 670 -28 386 -338 767 -734 899 -146 49 -374 64 -531 36z m384 -80
c114 -20 148 -31 184 -62 37 -30 38 -57 5 -79 -28 -18 -40 -17 -190 16 -86 19
-120 21 -240 17 -217 -8 -388 -65 -579 -191 -118 -78 -125 -81 -143 -63 -14
14 -13 19 6 50 61 99 255 221 438 277 167 50 355 63 519 35z m-2395 -54 c37
-30 18 -65 -70 -127 -40 -29 -92 -71 -115 -93 -42 -42 -72 -51 -94 -29 -40 40
43 162 162 242 46 31 85 33 117 7z m2769 -111 c59 -30 120 -92 120 -123 0 -66
-38 -76 -97 -24 -21 18 -59 50 -85 70 -45 36 -61 71 -41 90 13 13 64 7 103
-13z m-2256 -881 c56 -20 106 -66 106 -96 0 -22 -29 -53 -50 -53 -29 0 -199
89 -210 110 -8 14 -8 26 0 40 14 27 81 27 154 -1z m-1806 -25 c42 -29 27 -59
-56 -104 -29 -17 -54 -43 -82 -88 -44 -69 -63 -76 -89 -31 -12 23 -13 33 -2
69 15 52 83 127 136 151 49 23 64 23 93 3z m3112 -8 c23 -29 7 -60 -46 -88
-28 -16 -73 -53 -99 -83 -51 -61 -70 -67 -87 -30 -23 50 44 155 127 198 38 20
89 21 105 3z m-376 -119 c12 -9 17 -23 14 -42 -3 -31 -21 -43 -128 -89 -28
-12 -74 -49 -123 -98 -87 -89 -115 -97 -102 -31 29 154 251 324 339 260z
m-3140 -43 c9 -8 16 -21 16 -28 0 -23 -40 -65 -98 -105 -70 -48 -108 -88 -156
-163 -27 -44 -41 -58 -60 -58 -36 0 -50 23 -42 71 10 61 42 117 109 186 90 94
192 137 231 97z m556 -23 c61 -44 90 -118 89 -226 -1 -105 -8 -119 -52 -123
-87 -7 -204 54 -242 128 -48 94 -8 212 81 240 38 12 93 3 124 -19z m3102 -3
c16 -11 41 -43 56 -71 24 -47 27 -62 27 -157 0 -58 -3 -117 -8 -132 -6 -25
-11 -27 -40 -21 -105 20 -200 81 -237 154 -24 46 -27 137 -6 177 41 79 136
102 208 50z m-350 -391 c67 -67 165 -118 276 -144 40 -10 72 -20 72 -23 -1
-19 -109 -147 -157 -185 -200 -157 -436 -87 -437 131 0 71 36 156 110 260 l48
67 15 -24 c8 -13 41 -50 73 -82z m-3117 4 c79 -86 178 -134 303 -146 l71 -7
-37 -60 c-82 -133 -215 -218 -351 -225 -89 -5 -127 10 -175 70 -26 32 -31 49
-34 107 -5 90 14 147 90 263 l61 92 16 -25 c9 -14 34 -45 56 -69z"/>
<path d="M9788 6436 c-166 -45 -299 -252 -268 -416 23 -120 93 -180 212 -180
153 0 302 136 339 309 28 132 -38 259 -152 291 -43 13 -73 12 -131 -4z m112
-76 c39 -39 21 -66 -75 -114 -69 -34 -81 -44 -121 -106 -24 -37 -50 -70 -58
-73 -45 -17 -62 83 -26 152 63 125 218 203 280 141z"/>
<path d="M11011 6189 c-156 -33 -314 -105 -411 -187 -42 -36 -34 -52 12 -24
62 37 213 91 315 111 113 23 299 28 399 10 96 -17 205 -56 286 -104 82 -48
182 -141 213 -198 28 -52 46 -49 33 6 -43 193 -217 341 -460 391 -105 22 -269
20 -387 -5z"/>
<path d="M1730 5900 c0 -36 42 -135 88 -203 97 -147 300 -256 528 -282 l62 -7
4 49 c3 26 4 49 4 50 -1 1 -49 11 -106 23 -58 12 -138 35 -178 51 -148 59
-290 173 -357 288 -32 54 -45 63 -45 31z"/>
<path d="M11458 5796 c-29 -14 -35 -52 -12 -77 24 -27 60 -24 80 6 32 49 -15
97 -68 71z"/>
<path d="M1896 4714 c-25 -24 -20 -63 9 -76 44 -20 82 36 49 73 -21 23 -37 24
-58 3z"/>
<path d="M2830 4465 c0 -31 42 -141 71 -187 121 -189 340 -251 592 -167 102
34 287 149 287 179 0 5 -42 -11 -92 -35 -112 -54 -187 -75 -293 -82 -168 -12
-317 39 -428 146 -34 33 -75 82 -92 110 -31 52 -45 63 -45 36z"/>
<path d="M6834 4438 c9 -57 65 -175 106 -222 141 -160 382 -188 625 -72 93 44
215 128 215 147 0 6 -3 9 -7 7 -243 -124 -400 -154 -577 -108 -139 35 -241
108 -317 226 -23 35 -44 64 -47 64 -2 0 -2 -19 2 -42z"/>
<path d="M8300 4417 c0 -27 30 -119 54 -166 96 -184 326 -223 583 -97 94 46
217 131 209 145 -3 4 -45 -12 -93 -36 -127 -62 -231 -86 -358 -81 -94 3 -108
6 -178 41 -80 40 -152 107 -188 179 -22 44 -29 47 -29 15z"/>
<path d="M12169 4359 c-24 -24 -21 -40 11 -56 33 -16 89 7 90 39 0 15 -33 38
-56 38 -13 0 -33 -9 -45 -21z"/>
<path d="M12060 4202 c-120 -120 1 -297 150 -220 147 75 105 258 -59 258 -49
0 -57 -3 -91 -38z"/>
<path d="M7957 3973 c-58 -65 -3 -164 74 -133 48 20 65 94 29 130 -25 25 -81
26 -103 3z"/>
<path d="M984 3448 c11 -77 73 -187 145 -259 110 -110 231 -155 411 -153 174
3 344 61 490 169 73 54 68 69 -9 30 -142 -72 -334 -112 -481 -102 -215 16
-391 116 -506 288 -25 38 -48 69 -51 69 -3 0 -3 -19 1 -42z"/>
<path d="M6422 3478 c-15 -19 -44 -79 -40 -83 2 -2 93 -33 203 -68 110 -35
416 -139 680 -230 900 -310 1243 -403 1710 -464 166 -21 595 -24 735 -5 279
40 525 113 755 226 188 92 433 253 414 270 -2 2 -64 -31 -137 -74 -285 -168
-592 -272 -942 -322 -142 -20 -609 -17 -775 5 -421 56 -796 152 -1420 364
-847 287 -1160 393 -1166 393 -4 0 -11 -6 -17 -12z"/>
<path d="M3070 2837 c0 -22 35 -118 65 -177 61 -121 174 -251 290 -330 121
-83 304 -155 490 -192 150 -31 512 -33 679 -5 287 49 576 158 826 312 116 73
217 148 204 152 -6 2 -51 -20 -100 -50 -247 -150 -525 -256 -817 -309 -106
-20 -156 -23 -377 -23 -227 0 -267 3 -369 23 -290 59 -491 156 -664 321 -72
69 -186 222 -202 270 -7 23 -25 28 -25 8z"/>
<path d="M3140 2020 c-46 -46 -7 -120 62 -120 64 0 89 61 47 114 -26 33 -79
36 -109 6z"/>
<path d="M3404 1931 c-52 -32 -74 -68 -74 -123 0 -88 50 -148 124 -148 78 0
136 62 136 144 0 114 -98 181 -186 127z"/>
<path d="M4752 1778 c-17 -17 -15 -53 3 -68 36 -30 87 18 64 62 -11 20 -49 24
-67 6z"/>
</g>
</svg>
