<?xml version="1.0" standalone="no"?>
<!DOCTYPE svg PUBLIC "-//W3C//DTD SVG 20010904//EN"
 "http://www.w3.org/TR/2001/REC-SVG-20010904/DTD/svg10.dtd">
<svg version="1.0" xmlns="http://www.w3.org/2000/svg"
 width="420.000000pt" height="193.000000pt" viewBox="0 0 420.000000 193.000000"
 preserveAspectRatio="xMidYMid meet">

<g transform="translate(0.000000,193.000000) scale(0.100000,-0.100000)"
fill="#000000" stroke="none">
<path d="M3495 1881 c-78 -35 -185 -179 -261 -351 -23 -52 -70 -176 -105 -275
-34 -99 -67 -186 -73 -194 -19 -25 -88 -71 -107 -71 -17 0 -17 2 -3 43 34 92
17 195 -37 222 -78 41 -174 2 -220 -88 -11 -21 -25 -40 -32 -42 -7 -2 -75 -27
-151 -54 -77 -28 -142 -48 -144 -46 -3 3 3 26 13 52 14 36 43 71 118 143 157
150 260 298 286 411 21 90 8 179 -29 199 -28 15 -123 12 -147 -5 -31 -22 -84
-107 -133 -217 -25 -54 -48 -98 -51 -98 -4 0 -12 7 -19 15 -8 10 -31 15 -66
15 -30 0 -54 4 -54 8 0 5 7 30 16 56 19 56 15 133 -10 170 -19 31 -68 35 -104
10 -31 -22 -109 -127 -157 -212 -40 -71 -40 -71 -95 -82 -96 -19 -187 -49
-201 -67 -13 -15 -7 -16 86 -10 55 3 108 9 118 13 24 9 22 -9 -12 -91 -95
-234 -152 -475 -137 -578 14 -89 77 -127 143 -86 18 11 76 66 129 122 53 56
93 93 89 82 -72 -187 -117 -334 -117 -390 -1 -63 16 -79 73 -70 37 6 54 17
105 70 33 35 72 86 88 114 46 85 71 251 46 315 -6 17 -6 27 1 32 25 15 313
123 318 119 2 -3 -5 -29 -17 -58 -28 -67 -28 -100 1 -129 12 -13 19 -19 15
-14 -19 25 -5 27 20 3 47 -45 104 -32 186 43 22 21 59 43 81 49 22 6 55 20 73
31 31 19 33 19 28 3 -40 -136 -25 -282 33 -313 11 -5 46 -10 79 -10 46 0 66 5
88 23 41 32 79 75 116 130 l31 49 24 -31 c20 -25 32 -31 62 -31 44 0 118 43
152 89 24 33 39 40 39 17 0 -8 9 -24 20 -37 17 -21 19 -21 13 -4 -5 17 -1 16
24 -7 49 -46 105 -34 187 42 22 21 59 43 81 49 85 23 194 116 166 144 -8 8
-20 0 -46 -30 -38 -45 -93 -83 -118 -83 -15 0 -15 4 0 43 8 23 16 67 16 97 2
101 -46 148 -139 137 -75 -8 -138 -71 -150 -149 -4 -20 -13 -43 -20 -49 -8 -6
-11 -15 -8 -20 3 -5 1 -8 -5 -7 -5 2 -45 -35 -87 -82 -43 -47 -82 -87 -87 -89
-19 -7 2 68 53 191 29 67 63 142 77 166 29 51 20 72 -32 72 -43 0 -69 -30
-129 -149 -58 -116 -92 -166 -199 -294 -98 -117 -134 -148 -148 -126 -5 8 -7
23 -4 35 2 11 14 85 25 165 21 145 52 286 67 299 4 4 42 36 83 71 41 35 92 82
113 104 21 22 66 70 101 106 80 84 135 190 143 277 5 55 3 62 -20 86 -32 32
-92 35 -152 7z m131 -33 c9 -20 10 -46 5 -103 0 -8 -8 -15 -17 -15 -11 0 -14
6 -8 23 11 33 12 77 2 83 -11 7 -11 34 0 34 5 0 13 -10 18 -22z m-35 -15 c12
-31 -1 -103 -30 -167 -28 -64 -135 -198 -214 -271 -39 -36 -75 -65 -80 -65
-42 0 154 398 242 490 44 47 68 50 82 13z m-827 -98 l6 -50 -14 48 c-7 27 -18
53 -25 60 -6 6 -11 16 -11 21 0 6 9 2 19 -9 12 -12 22 -41 25 -70z m-54 -30
c0 -79 -20 -145 -67 -223 -68 -111 -208 -264 -178 -194 4 9 34 95 66 189 62
182 85 237 127 292 24 32 26 33 39 16 7 -11 13 -45 13 -80z m-450 -5 c0 -59
-34 -156 -60 -170 -23 -12 -70 -13 -70 -2 0 18 53 139 78 179 36 58 52 56 52
-7z m160 -207 c0 -3 -13 -30 -30 -59 -16 -29 -50 -100 -75 -159 -75 -176 -59
-154 -298 -422 -98 -110 -137 -142 -137 -114 0 36 54 289 74 346 45 131 61
158 131 219 37 32 85 82 107 110 36 46 46 53 107 68 70 17 121 22 121 11z
m-270 -51 c0 -4 -18 -26 -40 -47 -30 -29 -40 -35 -40 -22 0 36 30 77 55 77 14
0 25 -4 25 -8z m720 -202 c47 -25 48 -123 4 -217 -24 -50 -28 -53 -63 -53 -83
0 -90 41 -21 129 40 51 40 53 0 53 -3 1 -17 -2 -32 -6 -17 -4 -28 -2 -28 4 0
18 71 89 93 93 12 2 23 5 25 6 2 0 12 -3 22 -9z m1059 -9 c39 -39 35 -134 -9
-222 -18 -35 -24 -39 -58 -39 -84 0 -91 41 -22 129 40 51 40 53 0 53 -3 1 -17
-2 -32 -6 -17 -4 -28 -2 -28 4 0 18 71 89 93 93 12 2 25 5 30 6 4 0 16 -8 26
-18z m55 -17 c3 -8 2 -12 -4 -9 -6 3 -10 10 -10 16 0 14 7 11 14 -7z m-1037
-76 c-3 -7 -5 -2 -5 12 0 14 2 19 5 13 2 -7 2 -19 0 -25z m-153 -203 c-1 -5
-14 -19 -28 -30 -23 -17 -28 -18 -36 -5 -5 8 -10 23 -10 33 0 15 7 18 38 15
20 -2 36 -7 36 -13z m1050 0 c-1 -5 -14 -19 -28 -30 -23 -17 -28 -18 -36 -5
-5 8 -10 23 -10 33 0 15 7 18 38 15 20 -2 36 -7 36 -13z m-1532 -71 c2 -19 0
-37 -4 -40 -4 -3 -8 13 -8 35 0 51 6 53 12 5z m-48 -157 c-16 -51 -83 -165
-109 -187 -21 -18 30 138 78 238 l42 87 3 -43 c2 -24 -4 -67 -14 -95z m48 65
c3 -9 1 -26 -3 -37 -6 -15 -8 -11 -8 18 -1 40 4 48 11 19z m786 -52 c7 -11 9
-20 4 -20 -10 0 -32 22 -32 32 0 15 15 8 28 -12z m-820 -105 c-6 -14 -13 -23
-16 -21 -7 7 9 46 18 46 5 0 4 -11 -2 -25z"/>
<path d="M3637 1462 c-23 -26 -21 -51 5 -61 33 -12 71 2 88 32 13 24 13 29 0
37 -25 16 -76 11 -93 -8z"/>
<path d="M1506 1313 c-13 -21 -36 -83 -51 -138 -20 -76 -34 -108 -57 -132 -31
-32 -84 -60 -94 -50 -3 3 2 26 10 51 32 93 12 186 -45 216 -34 19 -120 7 -159
-20 -18 -13 -43 -46 -56 -75 -24 -52 -26 -53 -89 -69 -35 -9 -69 -16 -75 -16
-5 0 -10 21 -10 48 0 36 -5 54 -20 67 -30 27 -99 15 -165 -29 -30 -20 -56 -36
-58 -36 -3 0 0 20 6 45 13 57 3 70 -43 58 -31 -8 -35 -15 -91 -157 -32 -81
-68 -162 -81 -179 -71 -96 -193 -328 -263 -498 -30 -74 -55 -140 -55 -146 0
-7 -5 -13 -11 -13 -6 0 -8 9 -4 23 4 16 3 18 -4 7 -11 -18 -31 -122 -31 -165
0 -46 28 -67 79 -61 54 6 64 15 127 112 119 184 226 454 304 764 24 95 46 125
153 206 70 52 87 55 87 15 0 -74 -10 -89 -92 -147 -107 -75 -133 -134 -83
-188 64 -70 174 15 215 166 12 44 16 49 64 66 69 26 104 34 109 24 3 -4 -3
-24 -13 -45 -10 -21 -19 -41 -20 -45 0 -4 -3 -17 -6 -28 -6 -24 21 -84 37 -84
7 0 6 6 -2 17 -8 10 1 5 19 -10 19 -15 46 -27 60 -27 33 0 123 50 148 82 11
13 39 30 63 37 25 7 55 20 68 28 28 19 29 11 8 -67 -8 -30 -15 -60 -15 -65 0
-13 56 -35 65 -26 4 3 11 6 17 6 6 0 20 28 33 62 27 74 44 102 103 165 49 52
172 148 191 148 15 0 14 20 -1 21 -50 4 -104 -17 -187 -74 l-44 -30 7 29 c15
71 19 164 6 179 -19 22 -27 19 -54 -22z m-260 -84 c29 -33 26 -139 -6 -204
-20 -40 -31 -51 -54 -53 -40 -5 -73 5 -80 23 -7 18 21 74 60 123 27 33 27 34
-16 34 -3 1 -18 -2 -33 -6 -28 -7 -28 -6 -13 21 19 38 56 70 86 76 14 2 28 5
31 6 3 0 14 -8 25 -20z m52 -24 c-3 -3 -9 2 -12 12 -6 14 -5 15 5 6 7 -7 10
-15 7 -18z m-442 -40 c7 -30 -3 -95 -16 -95 -4 0 -9 27 -9 60 0 61 14 80 25
35z m451 -32 c-3 -10 -5 -2 -5 17 0 19 2 27 5 18 2 -10 2 -26 0 -35z m-568
-232 c-23 -42 -49 -61 -49 -36 0 16 60 88 67 81 3 -3 -5 -23 -18 -45z m419 40
c11 -6 6 -14 -17 -30 -35 -25 -51 -21 -51 15 0 20 5 24 28 24 15 0 33 -4 40
-9z m-488 -96 c0 -8 -4 -15 -10 -15 -5 0 -10 7 -10 15 0 8 5 15 10 15 6 0 10
-7 10 -15z m-349 -276 c-61 -166 -143 -351 -158 -356 -14 -5 17 111 54 207 29
74 143 293 149 287 3 -2 -18 -64 -45 -138z"/>
</g>
</svg>
